<?xml version="1.0" standalone="no"?>
<!DOCTYPE svg PUBLIC "-//W3C//DTD SVG 1.1//EN" "http://www.w3.org/Graphics/SVG/1.1/DTD/svg11.dtd" >
<svg xmlns="http://www.w3.org/2000/svg">
<metadata>Generated by IcoMoon</metadata>
<defs>
<font id="icomoon" horiz-adv-x="1024">
<font-face units-per-em="1024" ascent="960" descent="-64" />
<missing-glyph horiz-adv-x="1024" />
<glyph unicode="&#x20;" horiz-adv-x="512" d="" />
<glyph unicode="&#xe600;" glyph-name="eye" d="M512 746.667c-213.333 0-395.52-132.693-469.333-320 73.813-187.307 256-320 469.333-320s395.52 132.693 469.333 320c-73.813 187.307-255.787 320-469.333 320zM512 213.334c-117.76 0-213.333 95.573-213.333 213.333s95.573 213.333 213.333 213.333 213.333-95.573 213.333-213.333-95.573-213.333-213.333-213.333zM512 554.667c-70.613 0-128-57.387-128-128s57.387-128 128-128 128 57.387 128 128-57.387 128-128 128z" />
<glyph unicode="&#xe601;" glyph-name="search" horiz-adv-x="973" d="M960 128l-249.125 249.125c35.563 58.063 57.125 125.719 57.125 198.875 0 212.031-172 384-384 384-212.031 0-384-171.969-384-384 0-212 171.969-384 384-384 73.156 0 140.812 21.562 198.875 57l249.125-249c17.5-17.5 46.5-17.375 64 0l64 64c17.5 17.5 17.5 46.5 0 64zM384 320c-141.375 0-256 114.625-256 256s114.625 256 256 256 256-114.625 256-256-114.625-256-256-256z" />
<glyph unicode="&#xe602;" glyph-name="arrow-down" d="M512 853.334q17.667 0 30.167-12.5t12.5-30.167v-665l225.667 226q12.333 12.333 30.333 12.333 18.333 0 30.5-12.167t12.167-30.5q0-18-12.333-30.333l-298.667-298.667q-12.333-12.333-30.333-12.333t-30.333 12.333l-298.667 298.667q-12.333 12.333-12.333 30.333 0 18.333 12.167 30.5t30.5 12.167q18 0 30.333-12.333l225.667-226v665q0 17.667 12.5 30.167t30.167 12.5z" />
<glyph unicode="&#xe603;" glyph-name="help-circle" d="M512 952.32c-271.462 0-491.52-220.058-491.52-491.52s220.058-491.52 491.52-491.52c271.411 0 491.52 220.058 491.52 491.571 0 271.411-220.109 491.469-491.52 491.469zM504.269 174.131h-2.611c-40.038 1.178-68.301 30.72-67.123 70.195 1.126 38.81 30.054 67.021 68.762 67.021l2.355-0.102c41.165-1.178 69.12-30.413 67.942-71.014-1.178-38.912-29.594-66.099-69.325-66.099zM672.768 508.518c-9.421-13.312-30.106-30.003-56.218-50.33l-28.774-19.814c-15.77-12.288-25.293-23.91-28.826-35.226-2.867-8.909-4.198-11.315-4.454-29.491v-4.608h-109.824l0.307 9.318c1.382 38.093 2.304 60.621 18.125 79.206 24.832 29.082 79.616 64.41 81.92 65.894 7.885 5.888 14.49 12.595 19.405 19.814 11.52 15.923 16.589 28.416 16.589 40.602 0 17.101-5.018 32.922-15.002 46.899-9.626 13.619-27.904 20.378-54.323 20.378-26.214 0-44.186-8.294-54.886-25.395-11.059-17.459-16.64-35.84-16.64-54.63v-4.71h-113.203l0.205 4.915c2.918 69.274 27.699 119.194 73.472 148.326 28.826 18.483 64.717 27.853 106.547 27.853 54.682 0 100.966-13.312 137.318-39.526 36.915-26.573 55.603-66.406 55.603-118.323-0.051-29.030-9.216-56.32-27.341-81.152z" />
<glyph unicode="&#xe604;" glyph-name="check" d="M954.857 627.428q0-22.857-16-38.857l-491.429-491.429q-16-16-38.857-16t-38.857 16l-284.571 284.571q-16 16-16 38.857t16 38.857l77.714 77.714q16 16 38.857 16t38.857-16l168-168.571 374.857 375.429q16 16 38.857 16t38.857-16l77.714-77.714q16-16 16-38.857z" />
<glyph unicode="&#xe605;" glyph-name="star" d="M1024 562.95l-353.78 51.408-158.22 320.582-158.216-320.582-353.784-51.408 256-249.538-60.432-352.352 316.432 166.358 316.432-166.358-60.434 352.352 256.002 249.538z" />
<glyph unicode="&#xe606;" glyph-name="keyboard-arrow-down" d="M316.373 588.374l195.627-195.627 195.627 195.627 60.373-60.373-256-256-256 256z" />
<glyph unicode="&#xe607;" glyph-name="close" d="M810.667 664.96l-60.373 60.373-238.293-238.293-238.293 238.293-60.373-60.373 238.293-238.293-238.293-238.293 60.373-60.373 238.293 238.293 238.293-238.293 60.373 60.373-238.293 238.293z" />
<glyph unicode="&#xe608;" glyph-name="calendar" d="M704 448h-64v-128h64v128zM576 448h-64v-128h64v128zM704 640h-64v-128h64v128zM832 448h-64v-128h64v128zM576 256h-64v-128h64v128zM768 960h-64v-128h64v128zM256 960h-64v-128h64v128zM832 640h-64v-128h64v128zM576 640h-64v-128h64v128zM320 256h-64v-128h64v128zM192 448h-64v-128h64v128zM320 448h-64v-128h64v128zM832 896v-128h-192v128h-320v-128h-192v128h-128v-896h960v896h-128zM896 64h-832v640h832v-640zM192 256h-64v-128h64v128zM448 640h-64v-128h64v128zM448 256h-64v-128h64v128zM320 640h-64v-128h64v128zM448 448h-64v-128h64v128zM704 256h-64v-128h64v128z" />
<glyph unicode="&#xe609;" glyph-name="camera" horiz-adv-x="1280" d="M640 576c-106.048 0-192-85.99-192-192 0-106.048 85.952-192 192-192 106.022 0 192 85.952 192 192 0 106.010-85.978 192-192 192zM1152 768h-153.6c-21.12 0-43.878 16.384-50.547 36.429l-39.706 119.155c-6.694 20.032-29.427 36.416-50.547 36.416h-435.2c-21.12 0-43.878-16.384-50.547-36.429l-39.706-119.155c-6.694-20.032-29.427-36.416-50.547-36.416h-153.6c-70.4 0-128-57.6-128-128v-576c0-70.4 57.6-128 128-128h1024c70.4 0 128 57.6 128 128v576c0 70.4-57.6 128-128 128zM640 64c-176.73 0-320 143.27-320 320 0 176.717 143.27 320 320 320 176.704 0 320-143.283 320-320 0-176.73-143.296-320-320-320zM1107.2 550.49c-24.73 0-44.8 20.045-44.8 44.8 0 24.73 20.070 44.8 44.8 44.8 24.755 0 44.8-20.070 44.8-44.8 0-24.755-20.045-44.8-44.8-44.8z" />
<glyph unicode="&#xe60a;" glyph-name="cart" horiz-adv-x="1129" d="M41.761 876.521h119.712l170.522-616.346c4.871-18.087 21.576-30.609 40.368-30.609h524.092c16.703 0 31.32 9.74 38.279 25.043l190.705 438.261c5.568 13.216 4.175 27.825-3.482 39.652s-20.88 18.782-34.801 18.782h-579.071c-22.969 0-41.761-18.782-41.761-41.738s18.792-41.738 41.761-41.738h515.044l-154.513-354.782h-464.933l-170.52 616.346c-4.871 18.087-21.576 30.609-40.368 30.609h-151.035c-22.969 0-41.761-18.782-41.761-41.738 0-22.958 18.792-41.74 41.761-41.74zM332.69-64c52.2 0 94.656 42.434 94.656 94.608s-42.456 94.608-94.656 94.608-94.656-42.432-94.656-94.606c0-52.172 42.456-94.61 94.656-94.61zM924.298-64c2.089 0 4.871 0 6.959 0 25.056 2.087 48.025 13.216 64.729 32.696 16.705 18.782 24.362 43.131 22.969 68.87-3.482 51.478-48.72 91.13-100.92 87.652-52.2-3.48-91.178-49.392-87.697-100.868 3.476-49.392 44.541-88.35 93.959-88.35z" />
<glyph unicode="&#xe60b;" glyph-name="arrow-right" d="M366.293 236.374l195.627 195.627-195.627 195.627 60.373 60.373 256-256-256-256z" />
<glyph unicode="&#xe60c;" glyph-name="arrow-left" d="M657.707 241.707l-195.627 195.627 195.627 195.627-60.373 60.373-256-256 256-256z" />
<glyph unicode="&#xe60d;" glyph-name="pencil" horiz-adv-x="1028" d="M639.377 789.106l209.165-209.324-529.454-529.857-209.046 209.324 529.336 529.857zM1007.258 839.591l-93.279 93.351c-36.050 36.077-94.588 36.077-130.758 0l-89.351-89.421 209.165-209.324 104.225 104.305c27.958 27.982 27.958 73.107-0.002 101.089zM0.581-34.97c-3.808-17.146 11.66-32.507 28.792-28.339l233.078 56.558-209.044 209.324-52.826-237.543z" />
<glyph unicode="&#xe60e;" glyph-name="picture" horiz-adv-x="1260" d="M0 960v-1024h1260.308v1024h-1260.308zM1181.538 14.769h-1102.769v866.462h1102.769v-866.462zM866.462 684.308c0-65.255 52.898-118.154 118.154-118.154s118.154 52.898 118.154 118.154-52.898 118.154-118.154 118.154-118.154-52.898-118.154-118.154zM1102.769 93.538h-945.231l236.308 630.154 315.077-393.846 157.538 118.154 236.308-354.462z" />
<glyph unicode="&#xe60f;" glyph-name="thumb" horiz-adv-x="1067" d="M1030.006 391.323c24.442 28.001 36.675 61.108 36.675 99.337 0 34.662-12.691 64.659-37.967 90.009-25.342 25.342-55.339 38.008-89.993 38.008h-184.658c1.776 6.219 3.559 11.554 5.319 15.997 1.767 4.443 4.239 9.336 7.332 14.671 3.101 5.335 5.319 9.336 6.661 11.996 8.003 15.105 14.115 27.559 18.337 37.329 4.222 9.786 8.42 23.116 12.659 40.005 4.239 16.881 6.333 33.778 6.333 50.667 0 10.662-0.123 19.336-0.335 25.996-0.205 6.669-1.342 16.668-3.322 30.006-2.005 13.33-4.672 24.442-8.011 33.328s-8.674 18.894-15.997 29.998c-7.332 11.12-16.218 20.113-26.675 27.003-10.449 6.89-23.779 12.667-40.005 17.331s-34.547 6.996-55.004 6.996c-11.554 0-21.545-4.222-29.998-12.667-8.886-8.886-16.455-19.998-22.674-33.328-6.219-13.338-10.556-24.892-13.002-34.67-2.455-9.778-5.237-23.337-8.338-40.668-4.009-18.673-6.996-32.109-9.009-40.332-2.005-8.224-5.908-19-11.668-32.33-5.785-13.338-12.667-24-20.669-32.002-14.663-14.663-37.108-41.331-67.335-79.993-21.782-28.443-44.227-55.331-67.335-80.664-23.116-25.342-40.005-38.45-50.667-39.342-11.104-0.884-20.661-5.441-28.664-13.665s-12.004-17.895-12.004-28.999v-427.338c0-11.554 4.222-21.439 12.667-29.662s18.444-12.56 29.998-13.002c15.555-0.45 50.667-10.228 105.335-29.343 34.22-11.554 60.993-20.334 80.329-26.324 19.327-5.998 46.338-12.446 80.984-19.336 34.67-6.89 66.672-10.343 95.999-10.343h86.008c59.12 0.876 102.88 18.215 131.34 51.984 25.767 30.669 36.65 70.894 32.665 120.661 17.323 16.455 29.343 37.337 35.987 62.663 7.553 27.109 7.553 53.105 0 77.989 20.448 27.109 30.006 57.557 28.664 91.335 0.041 14.254-3.281 31.127-9.958 50.7zM234.67 533.324h-191.997c-11.562 0-21.561-4.222-30.006-12.667s-12.667-18.444-12.667-29.998v-426.684c0-11.546 4.222-21.545 12.667-29.998 8.453-8.436 18.452-12.659 30.006-12.659h191.997c11.554 0 21.553 4.222 29.998 12.659 8.444 8.453 12.667 18.452 12.667 29.998v426.684c0 11.554-4.222 21.553-12.667 29.998s-18.444 12.667-29.998 12.667zM157.999 118.988c-8.444-8.224-18.444-12.331-29.998-12.331-12.004 0-22.118 4.108-30.333 12.331-8.224 8.224-12.331 18.329-12.331 30.333 0 11.554 4.108 21.561 12.331 29.998 8.215 8.444 18.329 12.675 30.333 12.675 11.554 0 21.553-4.23 29.998-12.675 8.444-8.436 12.667-18.444 12.667-29.998 0-12.004-4.214-22.109-12.667-30.333z" />
<glyph unicode="&#xe610;" glyph-name="eye1" horiz-adv-x="1638" d="M819.2 960c-357.309 0-667.011-208.067-819.2-512 152.189-303.933 461.891-512 819.2-512 357.302 0 667.005 208.070 819.2 512-152.186 303.933-461.898 512-819.2 512zM1223.12 688.474c96.259-61.398 177.827-143.638 239.101-240.474-61.27-96.835-142.845-179.075-239.104-240.474-120.95-77.149-260.624-117.926-403.917-117.926-143.296 0-282.97 40.778-403.92 117.926-96.256 61.402-177.824 143.638-239.094 240.474 61.267 96.838 142.838 179.078 239.094 240.474 6.269 4 12.602 7.875 18.973 11.68-15.933-43.725-24.653-90.915-24.653-140.154 0-226.211 183.386-409.6 409.6-409.6s409.6 183.389 409.6 409.6c0 49.238-8.72 96.429-24.653 140.157 6.368-3.805 12.701-7.683 18.973-11.683zM819.2 611.2c0-84.832-68.768-153.6-153.6-153.6s-153.6 68.768-153.6 153.6 68.768 153.6 153.6 153.6 153.6-68.768 153.6-153.6z" />
<glyph unicode="&#xe611;" glyph-name="twitter" horiz-adv-x="1253" d="M1251.935 838.025c-1.779 2.125-4.762 2.842-7.297 1.69-37.471-16.668-76.9-28.65-117.495-35.743 43.104 32.516 75.223 77.566 91.673 129.208 0.794 2.471-0.026 5.172-2.048 6.785-2.035 1.613-4.839 1.818-7.054 0.486-48.557-28.881-101.134-49.236-156.335-60.527-48.954 50.938-117.264 80.075-187.994 80.075-143.815 0-260.823-117.354-260.823-261.591 0-17.449 1.69-34.731 5.018-51.501-199.208 12.341-385.474 108.252-512.134 264.062-1.293 1.6-3.252 2.484-5.313 2.279-2.035-0.154-3.866-1.306-4.89-3.072-23.107-39.762-35.32-85.247-35.32-131.525 0-80.203 36.331-155.183 98.19-204.662-31.851 3.828-62.946 13.89-91.008 29.508-1.882 1.075-4.237 1.063-6.119-0.038-1.882-1.075-3.085-3.098-3.136-5.274l-0.026-3.354c0-115.177 75.671-216.311 183.347-249.89-28.356-4.583-57.774-4.276-86.706 1.255-2.138 0.384-4.365-0.346-5.825-1.997-1.459-1.639-1.946-3.943-1.267-6.030 32.286-101.070 121.988-171.94 226.412-180.786-87.090-63.983-190.055-97.703-298.831-97.703-20.035 0-40.21 1.191-59.989 3.533-2.829 0.333-5.62-1.37-6.606-4.097-0.973-2.74 0.064-5.799 2.496-7.374 117.725-75.71 253.833-115.728 393.641-115.728 457.317 0 730.609 372.595 730.609 732.786 0 10.024-0.205 20.009-0.602 29.969 49.338 36.191 91.673 80.497 125.841 131.781 1.549 2.292 1.37 5.351-0.41 7.476z" />
<glyph unicode="&#xe612;" glyph-name="facebook" horiz-adv-x="555" d="M533.754 959.787l-133.041 0.213c-149.457 0-246.030-98.909-246.030-252.003v-116.199h-133.766c-11.562 0-20.917-9.344-20.917-20.885v-168.347c0-11.541 9.365-20.885 20.917-20.885h133.756v-424.797c0-11.541 9.365-20.885 20.917-20.885h174.512c11.562 0 20.917 9.354 20.917 20.885v424.797h156.39c11.562 0 20.917 9.344 20.917 20.885l0.064 168.347c0 5.536-2.208 10.848-6.122 14.762-3.925 3.925-9.248 6.122-14.805 6.122h-156.432v98.493c0 47.337 11.306 71.379 73.075 71.379l89.629 0.032c11.552 0 20.906 9.354 20.906 20.874v156.336c0 11.509-9.354 20.853-20.885 20.874z" />
<glyph unicode="&#xe613;" glyph-name="instagram" d="M892.583 960h-761.165c-72.306 0-131.417-53.517-131.417-131.417v-761.165c0-77.9 59.111-131.417 131.417-131.417h761.165c72.306 0 131.417 53.517 131.417 131.417v761.165c0 77.9-59.111 131.417-131.417 131.417zM699.837 800.082c0 25.333 20.795 46.128 46.128 46.128h115.69c25.333 0 46.128-20.795 46.128-46.128v-110.306c0-25.439-20.795-46.128-46.128-46.128h-115.69c-25.333 0-46.128 20.689-46.128 46.128v110.306zM513.003 649.454c113.578 0 205.623-89.195 205.623-199.29 0-109.989-92.045-199.29-205.623-199.29s-205.623 89.3-205.623 199.29c0 110.095 92.045 199.29 205.623 199.29zM908.31 94.44c0-22.483-18.367-40.745-40.745-40.745h-713.032c-22.378 0-40.745 18.261-40.745 40.745v432.463h94.051c-8.55-27.867-13.089-57.317-13.089-87.823 0-170.368 142.501-308.435 318.252-308.435s318.252 138.067 318.252 308.435c0 30.506-4.644 59.956-13.089 87.823h90.145v-432.463z" />
</font>
</defs>
</svg>
